# xmcd CD database file
#
# Track frame offsets:
#	150
#	45907
#	60207
#	106467
#	115220
#	171448
#	181589
#	195745
#	225156
#	246889
#
# Disc length: 3414 seconds
#
# Revision: 0
# Processed by: cddbd v1.5.2PL0 Copyright (c) Steve Scherf et al.
# Submitted via: CDex 1.70beta2
#
DISCID=720d540a
DTITLE=QuartEthno Sabâa - Tawada - Cd 2
DYEAR=2001
DGENRE=Jazz
TTITLE0=Echek
TTITLE1=Valse du Goda
TTITLE2=Hebbi Daâni
TTITLE3=Xobopzka
TTITLE4=7-8 Dans l'après-midi
TTITLE5=Nom d'un désert
TTITLE6=Taqsim Oud-Soprano
TTITLE7=Le marquis de Saadaoui - N'Aksak à dire
TTITLE8=6-4 Dans l'après-midi
TTITLE9=Taqsim Oud
EXTD=YEAR: 2001
EXTT0=
EXTT1=
EXTT2=
EXTT3=
EXTT4=
EXTT5=
EXTT6=
EXTT7=
EXTT8=
EXTT9=
PLAYORDER=
